HIERARCHY
ROOT Hips
{
	OFFSET 0.00000 0.00000 0.00000
	CHANNELS 6 Xposition Yposition Zposition Zrotation Yrotation Xrotation 
	JOINT LHipJoint
	{
		OFFSET 0 0 0
		CHANNELS 3 Zrotation Yrotation Xrotation
		JOINT LeftHip
		{
			OFFSET 1.54859 -1.61379 0.86856
			CHANNELS 3 Zrotation Yrotation Xrotation
			JOINT LeftKnee
			{
				OFFSET 2.25087 -6.18423 0.00000
				CHANNELS 3 Zrotation Yrotation Xrotation
				JOINT LeftAnkle
				{
					OFFSET 2.40328 -6.60297 0.00000
					CHANNELS 3 Zrotation Yrotation Xrotation
					JOINT LeftToe
					{
						OFFSET 0.17435 -0.47901 2.02453
						CHANNELS 3 Zrotation Yrotation Xrotation
						End Site
						{
							OFFSET 0.00000 -0.00000 1.04844
						}
					}
				}
			}
		}
	}
	JOINT RHipJoint
	{
		OFFSET 0 0 0
		CHANNELS 3 Zrotation Yrotation Xrotation
		JOINT RightHip
		{
			OFFSET -1.54669 -1.61379 0.86856
			CHANNELS 3 Zrotation Yrotation Xrotation
			JOINT RightKnee
			{
				OFFSET -2.28132 -6.26789 0.00000
				CHANNELS 3 Zrotation Yrotation Xrotation
				JOINT RightAnkle
				{
					OFFSET -2.51636 -6.91365 0.00000
					CHANNELS 3 Zrotation Yrotation Xrotation
					JOINT RightToe
					{
						OFFSET -0.15124 -0.41552 2.21090
						CHANNELS 3 Zrotation Yrotation Xrotation
						End Site
						{
							OFFSET -0.00000 -0.00000 1.13399
						}
					}
				}
			}
		}
	}
	JOINT lowerback
	{
		OFFSET 0 0 0
		CHANNELS 3 Zrotation Yrotation Xrotation
		JOINT Chest
		{
			OFFSET -0.04287 2.26161 -0.25690
			CHANNELS 3 Zrotation Yrotation Xrotation
			JOINT Chest2
			{
				OFFSET 0.02248 2.28395 -0.10140
				CHANNELS 3 Zrotation Yrotation Xrotation
				JOINT lowerneck
				{
					OFFSET 0 0 0
					CHANNELS 3 Zrotation Yrotation Xrotation
					JOINT Neck
					{
						OFFSET -0.11644 1.38496 0.11345
						CHANNELS 3 Zrotation Yrotation Xrotation
						JOINT Head
						{
							OFFSET 0.29383 1.36600 0.06642
							CHANNELS 3 Zrotation Yrotation Xrotation
							End Site
							{
								OFFSET 0.11075 1.41395 -0.00294
							}
						}
					}
				}
				JOINT LeftCollar
				{
					OFFSET 0 0 0
					CHANNELS 3 Zrotation Yrotation Xrotation
					JOINT LeftShoulder
					{
						OFFSET 3.51628 0.59542 -0.30346
CHANNELS 3 Zrotation Xrotation Yrotation
						JOINT LeftElbow
						{
OFFSET 0 -4.764050 0.000000
CHANNELS 3 Zrotation Xrotation Yrotation
							JOINT LeftWrist
							{
OFFSET 0 -3.137590 -0.000000
CHANNELS 3 Zrotation Xrotation Yrotation
								JOINT lhand
								{
									OFFSET 0 0 0
CHANNELS 3 Zrotation Xrotation Yrotation
									JOINT LFingers
									{
OFFSET 0 -0.732260 -0.000000
CHANNELS 3 Zrotation Xrotation Yrotation
										End Site
										{
OFFSET 0 -0.590370 -0.000000
										}
									}
								}
								JOINT LThumb
								{
OFFSET 0 0.000000 0.000000
CHANNELS 3 Zrotation Xrotation Yrotation
									End Site
									{
OFFSET 0 -0.599380 0.599380
									}
								}
							}
						}
					}
				}
				JOINT RightCollar
				{
					OFFSET 0 0 0
					CHANNELS 3 Zrotation Yrotation Xrotation
					JOINT RightShoulder
					{
						OFFSET -3.30990 0.84213 -0.36430
CHANNELS 3 Zrotation Xrotation Yrotation
						JOINT RightElbow
						{
OFFSET 0 -5.101610 -0.000000
CHANNELS 3 Zrotation Xrotation Yrotation
							JOINT RightWrist
							{
OFFSET 0 -3.232670 -0.000000
CHANNELS 3 Zrotation Xrotation Yrotation
								JOINT rhand
								{
									OFFSET 0 0 0
CHANNELS 3 Zrotation Xrotation Yrotation
									JOINT RFingers
									{
OFFSET 0 -0.702000 -0.000000
CHANNELS 3 Zrotation Xrotation Yrotation
										End Site
										{
OFFSET 0 -0.565970 -0.000000
										}
									}
								}
								JOINT RThumb
								{
OFFSET 0 0.000000 0.000000
CHANNELS 3 Zrotation Xrotation Yrotation
									End Site
									{
OFFSET 0 -0.574610 0.574610
									}
								}
							}
						}
					}
				}
			}
		}
	}
}
MOTION
Frames: 8
Frame Time: 0.008333333333333333
-32.550600 14.846800 -13.907600 34.978600 69.967000 57.776100 0.000000 0.000000 0.000000 -27.565600 17.842600 18.091100 0.000000 0.000000 0.000000 3.428600 1.093300 -35.499700 0.607900 -4.990700 -13.882000 0.000000 0.000000 0.000000 -0.210700 27.884300 -78.514200 -11.212600 -18.037600 63.470100 -0.151400 -0.536900 -7.563800 -3.962700 12.110600 -36.124300 -16.661700 -4.488200 -2.947100 3.788800 -5.401500 1.549500 13.130200 -3.319600 5.322300 -12.840900 -3.256200 -3.981000 13.372100 -3.009500 -10.614800 6.233500 -1.310100 -2.002200 0.000000 -0.000000 0.000000 9.444100 15.775000 -55.388800 102.510500 -59.400300 70.812600 21.857200 -10.926400 -18.732500 0.000000 0.000000 0.000000 -7.125000 0.000000 0.000000 -6.284600 49.946900 0.769100 0.000000 -0.000000 0.000000 -11.389900 -8.917000 -8.350400 -119.105400 -56.543600 -84.913600 -18.191400 -41.514900 -18.328400 0.000000 0.000000 0.000000 7.125000 0.000000 -0.000000 6.470400 10.851700 5.170500
-32.394496 14.873328 -13.887967 35.412320 69.923434 58.159616 0.000000 0.000000 0.000000 -27.647520 17.845545 18.415741 0.000000 0.000000 0.000000 3.418573 1.405858 -35.555817 0.947476 -1.722717 -4.614608 0.000000 0.000000 0.000000 0.034779 27.549539 -78.031843 -10.864470 -17.853800 62.322217 -0.158014 -0.475291 -7.691459 -3.969525 12.119715 -36.156764 -16.597473 -4.613522 -2.988913 3.798733 -5.566064 1.547560 13.075789 -3.405844 5.396437 -12.909521 -3.135342 -3.994720 13.249980 -2.849704 -10.629314 6.208211 -1.224207 -2.028377 0.000000 0.000000 0.000000 9.459643 16.219681 -55.239802 101.877765 -59.454851 70.267301 24.002425 -7.186857 -24.848560 0.000000 0.000000 0.000000 -7.125000 0.000000 0.000000 -9.105051 56.686486 3.979774 0.000000 0.000000 0.000000 -11.130561 -9.099210 -7.810383 -120.017901 -56.288725 -85.670208 -18.337570 -40.981451 -18.381198 0.000000 0.000000 0.000000 7.125000 0.000000 0.000000 6.377542 10.779129 5.104427
-32.238393 14.899855 -13.868335 35.846039 69.879868 58.543132 0.000000 0.000000 0.000000 -27.729440 17.848490 18.740382 0.000000 0.000000 0.000000 3.408547 1.718415 -35.611934 1.287052 1.545267 4.652785 0.000000 0.000000 0.000000 0.280258 27.214777 -77.549485 -10.516340 -17.670001 61.174334 -0.164629 -0.413681 -7.819119 -3.976349 12.128830 -36.189228 -16.533246 -4.738844 -3.030726 3.808666 -5.730629 1.545620 13.021379 -3.492087 5.470574 -12.978142 -3.014484 -4.008439 13.127860 -2.689907 -10.643828 6.182922 -1.138314 -2.054554 0.000000 0.000000 0.000000 9.475185 16.664362 -55.090803 101.245031 -59.509402 69.722002 26.147651 -3.447315 -30.964620 0.000000 0.000000 0.000000 -7.125000 0.000000 0.000000 -11.925502 63.426072 7.190449 0.000000 0.000000 0.000000 -10.871222 -9.281421 -7.270367 -120.930402 -56.033850 -86.426815 -18.483741 -40.448002 -18.433996 0.000000 0.000000 0.000000 7.125000 0.000000 0.000000 6.284684 10.706558 5.038353
-32.082289 14.926383 -13.848702 36.279759 69.836302 58.926648 0.000000 0.000000 0.000000 -27.811360 17.851435 19.065023 0.000000 0.000000 0.000000 3.398520 2.030973 -35.668051 1.626628 4.813250 13.920177 0.000000 0.000000 0.000000 0.525737 26.880016 -77.067128 -10.168209 -17.486201 60.026451 -0.171243 -0.352072 -7.946778 -3.983174 12.137946 -36.221692 -16.469019 -4.864167 -3.072539 3.818600 -5.895193 1.543680 12.966968 -3.578331 5.544711 -13.046763 -2.893626 -4.022159 13.005739 -2.530111 -10.658343 6.157634 -1.052421 -2.080731 0.000000 0.000000 0.000000 9.490728 17.109043 -54.941805 100.612296 -59.563953 69.176704 28.292876 0.292228 -37.080680 0.000000 0.000000 0.000000 -7.125000 0.000000 0.000000 -14.745952 70.165658 10.401123 0.000000 0.000000 0.000000 -10.611883 -9.463631 -6.730350 -121.842903 -55.778976 -87.183423 -18.629911 -39.914553 -18.486794 0.000000 0.000000 0.000000 7.125000 0.000000 0.000000 6.191826 10.633987 4.972280
-31.926186 14.952910 -13.829069 36.713478 69.792736 59.310163 0.000000 0.000000 0.000000 -27.893279 17.854380 19.389664 0.000000 0.000000 0.000000 3.388493 2.343530 -35.724167 1.966204 8.081233 23.187569 0.000000 0.000000 0.000000 0.771217 26.545255 -76.584771 -9.820079 -17.302401 58.878567 -0.177857 -0.290463 -8.074438 -3.989999 12.147061 -36.254156 -16.404792 -4.989489 -3.114352 3.828533 -6.059757 1.541740 12.912557 -3.664575 5.618848 -13.115384 -2.772768 -4.035878 12.883619 -2.370315 -10.672857 6.132345 -0.966527 -2.106908 0.000000 0.000000 0.000000 9.506270 17.553725 -54.792807 99.979562 -59.618504 68.631405 30.438102 4.031770 -43.196740 0.000000 0.000000 0.000000 -7.125000 0.000000 0.000000 -17.566403 76.905244 13.611798 0.000000 0.000000 0.000000 -10.352544 -9.645841 -6.190333 -122.755403 -55.524101 -87.940031 -18.776081 -39.381104 -18.539592 0.000000 0.000000 0.000000 7.125000 0.000000 0.000000 6.098968 10.561416 4.906206
-31.777940 14.961733 -13.812573 37.080679 69.774682 59.613655 0.000000 0.000000 0.000000 -27.934749 17.907032 19.833516 0.000000 0.000000 0.000000 3.354034 2.547821 -35.618617 2.916653 10.079871 29.751837 0.000000 0.000000 0.000000 1.039998 26.218958 -76.161901 -9.484410 -17.097693 57.733264 -0.174709 -0.221822 -7.974164 -3.932160 12.067367 -35.973672 -16.277452 -5.038580 -3.099376 3.798741 -6.132814 1.532129 12.794141 -3.693591 5.606013 -12.995309 -2.694738 -4.037474 12.721301 -2.276194 -10.688872 6.061463 -0.919601 -2.129342 0.000000 0.000000 0.000000 9.669401 17.988744 -54.850749 99.210334 -59.670188 67.967266 31.963113 4.387863 -41.919735 0.000000 0.000000 0.000000 -7.125000 0.000000 0.000000 -13.911776 76.026344 11.487986 0.000000 0.000000 0.000000 -10.017396 -9.808155 -5.778413 -123.668865 -55.235874 -88.689658 -18.814254 -38.639719 -18.638911 0.000000 0.000000 0.000000 7.125000 0.000000 0.000000 6.079423 10.453891 4.903852
-31.632728 14.963720 -13.797287 37.422195 69.766478 59.886246 0.000000 0.000000 0.000000 -27.960598 17.978878 20.323399 0.000000 0.000000 0.000000 3.310141 2.710305 -35.450640 4.102983 11.588365 35.272325 0.000000 0.000000 0.000000 1.317778 25.895930 -75.762001 -9.153551 -16.884912 56.588957 -0.167791 -0.150466 -7.785877 -3.849352 11.953380 -35.572347 -16.125743 -5.058237 -3.062471 3.753609 -6.170537 1.519554 12.651009 -3.700509 5.559596 -12.802371 -2.633245 -4.034389 12.543462 -2.207432 -10.705466 5.972975 -0.887721 -2.150330 0.000000 0.000000 0.000000 9.889521 18.420033 -54.988598 98.388401 -59.720766 67.257240 33.248635 3.437476 -37.787982 0.000000 0.000000 0.000000 -7.125000 0.000000 0.000000 -7.756871 72.205653 7.304323 0.000000 0.000000 0.000000 -9.652976 -9.962786 -5.415955 -124.582698 -54.934769 -89.436589 -18.810725 -37.818043 -18.756193 0.000000 0.000000 0.000000 7.125000 0.000000 0.000000 6.088188 10.332870 4.926103
-31.487516 14.965707 -13.782002 37.763711 69.758274 60.158837 0.000000 0.000000 0.000000 -27.986448 18.050725 20.813282 0.000000 0.000000 0.000000 3.266248 2.872789 -35.282664 5.289314 13.096859 40.792812 0.000000 0.000000 0.000000 1.595557 25.572901 -75.362101 -8.822693 -16.672131 55.444650 -0.160873 -0.079111 -7.597590 -3.766544 11.839393 -35.171021 -15.974033 -5.077893 -3.025566 3.708477 -6.208260 1.506980 12.507877 -3.707427 5.513178 -12.609432 -2.571753 -4.031304 12.365622 -2.138671 -10.722060 5.884488 -0.855841 -2.171318 0.000000 0.000000 0.000000 10.109641 18.851322 -55.126448 97.566467 -59.771343 66.547213 34.534158 2.487089 -33.656230 0.000000 0.000000 0.000000 -7.125000 0.000000 0.000000 -1.601966 68.384962 3.120661 0.000000 0.000000 0.000000 -9.288555 -10.117417 -5.053498 -125.496531 -54.633664 -90.183521 -18.807195 -36.996367 -18.873475 0.000000 0.000000 0.000000 7.125000 0.000000 0.000000 6.096952 10.211848 4.948353
